<?xml version="1.0" encoding="UTF-8" standalone="no"?>
<svg
   width="70"
   height="70"
   viewBox="0 0 70 70"
   version="1.1"
   id="svg793"
   sodipodi:docname="icon.svg"
   inkscape:version="1.2.1 (9c6d41e, 2022-07-14)"
   xmlns:inkscape="http://www.inkscape.org/namespaces/inkscape"
   xmlns:sodipodi="http://sodipodi.sourceforge.net/DTD/sodipodi-0.dtd"
   xmlns:xlink="http://www.w3.org/1999/xlink"
   xmlns="http://www.w3.org/2000/svg"
   xmlns:svg="http://www.w3.org/2000/svg">
  <sodipodi:namedview
     id="namedview795"
     pagecolor="#ffffff"
     bordercolor="#666666"
     borderopacity="1.0"
     inkscape:showpageshadow="2"
     inkscape:pageopacity="0.0"
     inkscape:pagecheckerboard="0"
     inkscape:deskcolor="#d1d1d1"
     showgrid="false"
     inkscape:zoom="17.137042"
     inkscape:cx="32.385986"
     inkscape:cy="33.20293"
     inkscape:window-width="2560"
     inkscape:window-height="1440"
     inkscape:window-x="3120"
     inkscape:window-y="1080"
     inkscape:window-maximized="0"
     inkscape:current-layer="svg793" />
  <defs
     id="defs772">
    <path
       id="a"
       d="M4 0h61c4 0 5 1 5 5v60c0 4-1 5-5 5H4c-3 0-4-1-4-5V5c0-4 1-5 4-5z" />
    <linearGradient
       id="c"
       x1="70"
       x2="0"
       y1="0"
       y2="70"
       gradientUnits="userSpaceOnUse">
      <stop
         offset="0%"
         stop-color="#DA956B"
         id="stop765" />
      <stop
         offset="100%"
         stop-color="#CC7039"
         id="stop767" />
    </linearGradient>
    <path
       id="d"
       d="M56.243 52.279c.578 0 1.05.537 1.05 1.193v.978c0 .656-.472 1.194-1.05 1.194H13.532c-.578 0-1.05-.538-1.05-1.194v-35.8c0-.657.472-1.194 1.05-1.194h1.5c.578 0 1.05.537 1.05 1.194v33.629h40.161zM39 23.025l4.981 4.963-6.302 7.25-4.866-5.53c-.411-.467-1.068-.467-1.48 0L20.92 41.423a1.31 1.31 0 0 0-.018 1.68l2.494 2.924c.412.477 1.086.487 1.497.01l7.186-8.165 4.857 5.52a.965.965 0 0 0 1.488 0l9.558-10.86L53 37.664 55 20l-16 3.025z" />
    <path
       id="e"
       d="M56.243 50.279c.578 0 1.05.537 1.05 1.193v.978c0 .656-.472 1.194-1.05 1.194H13.532c-.578 0-1.05-.538-1.05-1.194v-35.8c0-.657.472-1.194 1.05-1.194h1.5c.578 0 1.05.537 1.05 1.194v33.629h40.161zM39 21.025l4.981 4.963-6.302 7.25-4.866-5.53c-.411-.467-1.068-.467-1.48 0L20.92 39.423a1.31 1.31 0 0 0-.018 1.68l2.494 2.924c.412.477 1.086.487 1.497.01l7.186-8.165 4.857 5.52a.965.965 0 0 0 1.488 0l9.558-10.86L53 35.664 55 18l-16 3.025z" />
    <mask
       id="b"
       fill="#fff">
      <use
         xlink:href="#a"
         id="use774" />
    </mask>
  </defs>
  <g
     mask="url(#b)"
     id="g789"
     style="display:inline;fill:#0044aa;fill-rule:evenodd">
    <path
       fill="url(#c)"
       d="M 0,0 H 70 V 70 H 0 Z"
       id="path777"
       style="fill:#5599ff" />
    <path
       fill="#ffffff"
       fill-opacity="0.383"
       d="m 4,1 h 61 c 2.667,0 4.333,0.667 5,2 V 0 H 0 V 3 C 0.667,1.667 2,1 4,1 Z"
       id="path779"
       style="fill:#aaccff" />
    <path
       fill="#000000"
       fill-opacity="0.383"
       d="m 4,69 h 61 c 2.667,0 4.333,-1 5,-3 v 4 H 0 v -4 c 0.667,2 2,3 4,3 z"
       id="path783"
       style="fill:#0055d4" />
  </g>
  <ellipse
     style="display:inline;fill:#ffffff;stroke-width:2.79866"
     id="path901"
     cx="35"
     cy="34.625122"
     rx="32.955208"
     ry="32.307693" />
  <path
     id="path259"
     style="opacity:1;fill:#ff6600;stroke-width:0.119574"
     d="M 35.015341,4.2360248 A 30.015386,30.000003 0 0 0 20.453614,8.0894006 L 28.63582,22.254159 c 1.966469,-0.915617 4.188121,-1.399278 6.416228,-1.399278 1.895153,0 3.785325,0.351711 5.519853,1.016323 L 48.810223,7.609345 51.038202,8.8950616 42.884891,23.009875 c 3.047137,1.893781 5.186392,4.997724 5.186392,9.182063 0,0.256808 -0.02793,0.504434 -0.04595,0.755303 H 64.999997 A 30.015386,30.000003 0 0 0 35.015321,4.2360248 Z M 18.243212,9.40594 A 30.015386,30.000003 0 0 0 5.0922177,32.947241 H 22.093545 c -0.01802,-0.250869 -0.04595,-0.498503 -0.04595,-0.755303 0,-3.804257 1.768077,-6.709407 4.37264,-8.630304 z M 5.0440627,33.619671 a 30.015386,30.000003 0 0 0 -0.04406,0.616353 30.015386,30.000003 0 0 0 0.04406,0.616353 z m 0.04773,1.898995 A 30.015386,30.000003 0 0 0 18.835866,59.499834 L 27.468775,44.55466 c -1.561089,-2.820516 -3.867692,-5.685056 -4.891878,-9.035994 z m 42.4504703,0 c -1.149608,3.762365 -3.917639,6.909801 -5.42578,10.072686 l 8.284388,14.341803 A 30.015386,30.000003 0 0 0 64.938861,35.518666 Z M 28.734765,47.505839 21.094413,60.73254 a 30.015386,30.000003 0 0 0 13.920919,3.503484 30.015386,30.000003 0 0 0 13.126842,-3.070172 l -4.938497,-8.549385 v 0.245815 c 0,0.904539 -0.728641,1.632811 -1.633643,1.632811 H 28.54759 c -0.905001,0 -1.633504,-0.728272 -1.633504,-1.632811 v -0.629469 c 0,-0.904539 0.728503,-1.632667 1.633504,-1.632667 h 13.022443 c 0.183965,0 0.357553,0.03698 0.522307,0.09249 l -0.958078,-1.658765 c -0.0099,0.147324 -0.03367,0.29314 -0.03367,0.441551 H 29.018227 c 0,-0.66634 -0.105598,-1.320827 -0.283493,-1.969586 z m 1.38451,8.108811 h 10.223566 l -2.69712,2.793114 c -0.352037,0.364548 -0.864373,0.574074 -1.399711,0.574074 h -2.031736 c -0.535339,0 -1.044575,-0.210427 -1.39776,-0.574074 z" />
</svg>
